<svg xmlns="http://www.w3.org/2000/svg" width="69" height="69" viewBox="0 0 69 69">
  <g id="icon_google" transform="translate(-559.5 -3064.5)">
    <path id="Rectangle_709_copy_6" data-name="Rectangle 709 copy 6" d="M34,0A34,34,0,1,1,0,34,34,34,0,0,1,34,0Z" transform="translate(560 3065)" stroke="#eff2f5" stroke-width="1" opacity="0.03"/>
    <g id="그룹_102127" data-name="그룹 102127" transform="translate(-213 1733)">
      <path id="패스_2829" data-name="패스 2829" d="M310.967,254.256A10.745,10.745,0,0,1,308.715,257c-5.082-3.958-4.119-3.194-4.585-3.611a7.107,7.107,0,0,0,2.774-4.048c.1-.319.066-.443-.329-.44-2.351.02-4.7.01-7.054.01-.5,0-.5,0-.5-.515,0-1.594.008-3.187-.007-4.781,0-.307.051-.425.4-.424q6.505.019,13.01,0c.234,0,.381.017.422.3a16,16,0,0,1-1.878,10.764" transform="translate(508.54 1119.652)" fill="#4384f4"/>
      <path id="패스_2830" data-name="패스 2830" d="M54.678,366.1a12.131,12.131,0,0,1-5.466,2.987,14.7,14.7,0,0,1-13.368-2.7,13.553,13.553,0,0,1-3.864-4.817l4.766-3.7a9.777,9.777,0,0,0,1.788,3.052,8.924,8.924,0,0,0,11.559,1.565c.444.4-.5-.353,4.585,3.611" transform="translate(762.576 1010.55)" fill="#4db74b"/>
      <path id="패스_2831" data-name="패스 2831" d="M6.323,174.769l-4.766,3.7a14.445,14.445,0,0,1,.012-13.07c5.276,4.063,4.475,3.456,4.79,3.663a9.22,9.22,0,0,0-.036,5.707" transform="translate(793 1193.652)" fill="#ffcd05"/>
      <path id="패스_2832" data-name="패스 2832" d="M54.771,4.071c-4.082,4-3.769,3.968-4.065,3.7-4.1-3.755-11.4-2.329-13.689,3.947-.313-.2.509.419-4.79-3.663A14.437,14.437,0,0,1,42.785.216a14.093,14.093,0,0,1,11.95,3.323c.219.188.273.3.035.532" transform="translate(762.342 1351)" fill="#e22f31"/>
    </g>
  </g>
</svg>
